<svg width="36" height="36" viewBox="0 0 36 36" fill="none" xmlns="http://www.w3.org/2000/svg">
<path d="M11.75 26.75C11.4185 26.75 11.1005 26.6183 10.8661 26.3839C10.6317 26.1495 10.5 25.8315 10.5 25.5V10.5C10.5 10.2869 10.5544 10.0774 10.6582 9.89124C10.7619 9.70511 10.9116 9.5486 11.0928 9.43657C11.2741 9.32454 11.481 9.26071 11.6939 9.25114C11.9067 9.24157 12.1185 9.28658 12.3091 9.3819L27.3091 16.8819C27.5168 16.9857 27.6915 17.1453 27.8135 17.3428C27.9356 17.5403 28.0003 17.7678 28.0003 18C28.0003 18.2322 27.9356 18.4598 27.8135 18.6573C27.6915 18.8548 27.5168 19.0144 27.3091 19.1181L12.3091 26.6181C12.1355 26.7049 11.9441 26.75 11.75 26.75V26.75ZM13 12.5224V23.4776L23.9552 18L13 12.5224Z" fill="#D9D9D9"/>
<path d="M13 23.4775L23.955 18L13 12.5225V23.4775Z" fill="#152A61"/>
<path d="M18 0.5C14.5388 0.5 11.1554 1.52636 8.27753 3.44928C5.39967 5.37221 3.15665 8.10533 1.83212 11.303C0.507583 14.5007 0.161024 18.0194 0.836265 21.4141C1.51151 24.8087 3.17822 27.9269 5.62564 30.3744C8.07306 32.8218 11.1913 34.4885 14.5859 35.1637C17.9806 35.839 21.4993 35.4924 24.697 34.1679C27.8947 32.8434 30.6278 30.6003 32.5507 27.7225C34.4737 24.8446 35.5 21.4612 35.5 18C35.5 13.3587 33.6563 8.90752 30.3744 5.62563C27.0925 2.34374 22.6413 0.5 18 0.5V0.5ZM27.3091 19.1181L12.3091 26.6181C12.1185 26.7134 11.9068 26.7585 11.6939 26.7489C11.481 26.7393 11.2741 26.6755 11.0928 26.5635C10.9116 26.4514 10.762 26.2949 10.6582 26.1088C10.5544 25.9227 10.5 25.7131 10.5 25.5V10.5C10.5 10.2869 10.5544 10.0773 10.6582 9.89122C10.762 9.70509 10.9116 9.54858 11.0928 9.43655C11.2741 9.32452 11.481 9.26068 11.6939 9.25112C11.9068 9.24155 12.1185 9.28656 12.3091 9.38188L27.3091 16.8819C27.5168 16.9857 27.6915 17.1453 27.8136 17.3427C27.9356 17.5402 28.0003 17.7678 28.0003 18C28.0003 18.2322 27.9356 18.4598 27.8136 18.6573C27.6915 18.8547 27.5168 19.0143 27.3091 19.1181Z" fill="#152A61"/>
</svg>
